<?xml version="1.0" encoding="utf-8"?>
<!-- Generator: Adobe Illustrator 18.1.1, SVG Export Plug-In . SVG Version: 6.00 Build 0)  -->
<svg version="1.1" id="Layer_1" xmlns="http://www.w3.org/2000/svg" xmlns:xlink="http://www.w3.org/1999/xlink" x="0px" y="0px"
	 viewBox="0 0 1440 369.4" enable-background="new 0 0 1440 369.4" xml:space="preserve">
<g id="Layer_3" display="none">
	<rect x="-89.5" y="1070.4" display="inline" fill="#101612" width="1924.5" height="1453.5"/>
</g>
<g id="Layer_2">
</g>
<g id="Capa_1">
	<title>digicert-logos2b</title>
	<desc>Created with Sketch.</desc>
	<g>
		<path fill="#00A8B1" d="M1442.7,222.7c-0.7-6.7-2-14.1-3.4-20.2c-3.4-14.1-9.4-26.9-17.5-38.4c-10.1-15.5-23.6-28.3-39-38.4
			c-21.5-13.5-46.4-21.5-74-21.5c-57.2,0-105.6,35-125.2,84.1c-1.3,2.7-2,5.4-2.7,8.7c-3.4,10.8-5.4,22.2-6.1,33.6c0,2,0,3.4,0,5.4
			c0,2.7,0,6.1,0.7,8.7c0,3.4,0.7,7.4,1.3,10.8c1.3,11.4,4.7,22.2,9.4,32.3c6.7,14.8,15.5,28.3,26.9,39.7
			c8.7,9.4,19.5,16.8,30.3,22.9c19.5,10.8,41.7,16.8,65.9,16.8c37,0,70-14.8,94.2-37.7c0.7-0.7,0.7-0.7,1.3-1.3
			c5.4-5.4,10.1-11.4,14.8-17.5c6.1-8.1,10.8-17.5,14.8-26.9c6.1-14.8,9.4-31,9.4-48.4C1443.4,230.8,1443.4,226.8,1442.7,222.7
			 M1327.6,290c-6.1,2-12.1,3.4-18.8,3.4c-16.1,0-30.3-6.7-41-16.8c-0.7-0.7-2-2-2.7-2.7c-6.7-8.1-11.4-17.5-12.8-27.6
			c-0.7-3.4-0.7-6.7-0.7-10.1c0-2.7,0-6.1,0.7-8.7c2-15.5,10.8-28.9,22.2-37.7c9.4-7.4,21.5-11.4,34.3-11.4c4.7,0,8.7,0.7,12.8,1.3
			c13.5,3.4,25.6,11.4,33.6,22.2c6.7,9.4,11.4,21.5,11.4,34.3c0,16.8-7.4,31.6-18.2,42.4C1342.4,282.6,1335.7,287.3,1327.6,290"/>
		<polygon fill="#AC0080" points="942.1,311.6 942.1,111.7 886.9,111.7 886.9,111.7 862,111.7 862,362.7 942.1,362.7 		"/>
		<path fill="#99CC33" d="M1171.5,323c-4.7-17.5-9.4-36.3-9.4-36.3l-3.4,1.3c-19.5,6.1-43.1,8.7-57.9,6.7
			c-11.4-2-20.9-5.4-28.9-10.8c-4-2.7-13.5-12.1-14.1-12.8c-6.7-9.4-10.1-20.9-10.1-35c0-32.3,18.8-53.2,53.2-58.5
			c14.8-2.7,39,0,57.9,6.7l3.4,1.3c0,0,11.4-57.2,14.1-70c-18.8-8.1-41-11.4-67.3-11.4c-86.1,0-144.7,55.2-144.7,131.9
			c0,0.7,0,0.7,0,0.7c0,12.1,1.3,23.6,4.7,34.3c0,0.7,2.7,10.1,4,12.8l0,0c6.7,18.2,17.5,33.6,31,46.4l0,0l6.1,5.4
			c24.9,20.2,59.2,32.3,98.9,33c38.4,0.7,55.9-6.1,71.3-12.8C1178.9,349.2,1175.6,336.4,1171.5,323"/>
		<polygon fill="#FF1722" points="347.9,333.1 343.9,312.9 331.1,250.3 302.1,111.7 214.7,111.7 180.3,235.5 146,111.7 61.2,111.7 
			31,250.3 17.5,312.9 12.8,333.1 6.7,362.7 88.8,362.7 111.7,250.3 115.1,232.8 133.9,298.1 153.4,362.7 207.3,362.7 226.1,298.1 
			245.6,232.8 249,250.3 271.2,362.7 353.9,362.7 		"/>
		<path fill="#FF0099" d="M495.9,251.7h14.1h105v-9.4c0-75.4-37-126.5-101.6-136.6c-5.4-0.7-11.4-1.3-17.5-2c-2.7,0-5.4,0-8.1,0
			c-1.3,0-2.7,0-4,0c-8.7,0-17.5,1.3-25.6,2.7c-59.9,11.4-101.6,58.5-101.6,130.5c0,37,11.4,66.6,29.6,88.8
			c19.5,22.2,46.4,36.3,78.1,41.7c9.4,1.3,18.8,2,28.9,2c53.2,0,105-26.9,118.4-85.5h-78.7l0,0c-8.7,16.1-21.5,22.9-38.4,22.9h-0.7
			c-22.9,0-39-8.7-47.1-25.6c-1.3-2.7-2.7-6.1-3.4-8.7c-1.3-4.7-2-9.4-2.7-14.8c0-2,0-4,0-6.7h35.7h19.5V251.7z M536.3,200.5h-57.2
			h-18.2h-20.2l0,0c4-20.2,16.8-33,34.3-37.7c4.7-1.3,9.4-2,14.8-2C512.1,161.5,532.3,177,536.3,200.5"/>
		<polygon fill="#FF0099" points="484.5,99.6 491.2,96.2 505.3,88.1 524.9,78.1 568.6,54.5 524.2,0 451.5,64.6 474.4,89.5 		"/>
		<polygon fill="#FFB500" points="795.4,279.3 770.5,237.5 796,194.5 845.8,111.7 841.1,111.7 756.3,111.7 744.2,133.9 720.7,179 
			696.4,133.9 685,111.7 595.5,111.7 644.6,194.5 670.9,237.5 645.3,279.3 595.5,362.7 685,362.7 696.4,341.2 720.7,296.1 
			744.2,341.2 756.3,362.7 845.8,362.7 		"/>
		<path fill="#00778A" d="M1274.5,188.4c9.4-7.4,21.5-11.4,34.3-11.4c4.7,0,8.7,0.7,12.8,1.3c3.4-0.7,6.7-2,10.8-2.7
			c31.6-8.7,61.2-11.4,89.5-11.4c-10.1-15.5-23.6-28.3-39-38.4c-28.9,2-57.2,11.4-91.5,28.3c-42.4,21.5-78.7,30.3-107,33.6
			c-1.3,2.7-2,5.4-2.7,8.7C1205.2,196.5,1236.1,195.1,1274.5,188.4"/>
		<path fill="#00778A" d="M1355.2,200.5c6.7,9.4,11.4,21.5,11.4,34.3c20.9-2.7,43.7-6.1,67.3-10.8c2.7-0.7,6.1-0.7,8.7-1.3
			c-0.7-6.7-2-14.1-3.4-20.2C1403.7,194.5,1378.1,195.8,1355.2,200.5"/>
		<path fill="#00778A" d="M1252.3,244.9c-0.7-3.4-0.7-6.7-0.7-10.1c0-2.7,0-6.1,0.7-8.7c-10.1,1.3-21.5,2-33.6,2.7
			c-16.1,0.7-30.3,0.7-43.1,0.7c0,2,0,3.4,0,5.4c0,2.7,0,6.1,0.7,8.7C1197.1,245.6,1222.7,246.3,1252.3,244.9"/>
		<path fill="#00778A" d="M1403.7,328.4c0.7-0.7,0.7-0.7,1.3-1.3c-13.5-4-27.6-7.4-41.7-11.4c-72.7-19.5-103-3.4-150.1,10.1
			c8.7,9.4,19.5,16.8,30.3,22.9c30.3-3.4,63.9-8.1,101.6-14.8C1365.3,331.1,1384.8,329,1403.7,328.4"/>
		<path fill="#00778A" d="M1268.4,275.9c-0.7-0.7-2-2-2.7-2.7c-11.4-3.4-22.9-6.7-35-9.4c-20.9-5.4-38.4-8.1-53.8-8.7
			c1.3,11.4,4.7,22.2,9.4,32.3c8.7-1.3,17.5-2.7,26.2-4.7C1232.1,278.6,1250.2,276.6,1268.4,275.9"/>
		<path fill="#00778A" d="M1327.6,290c32.3,8.7,62.6,15.5,91.5,20.2c6.1-8.1,10.8-17.5,14.8-26.9c-28.9-1.3-57.2-4-86.1-6.1
			C1342.4,282.6,1335.7,287.3,1327.6,290"/>
		<polygon fill="#7C0E6C" points="909.1,311.6 886.9,111.7 862,111.7 862,362.7 942.1,362.7 942.1,311.6 		"/>
		<path fill="#669900" d="M1036.9,247c-1.3-8.1-5.4-5.4-23.6-4c-14.8,1.3-17.5-1.3-17.5-6.1s3.4-8.1,17.5-6.1
			c17.5,2.7,21.5,4,23.6-4c1.3-7.4-10.8-8.1-22.2-10.1c-36.3-6.1-39,15.5-39,20.2s-0.7,26.2,39,20.2
			C1026.2,255.7,1038.3,254.4,1036.9,247"/>
		<path fill="#669900" d="M1019.4,202.5c14.8,8.1,19.5,12.1,24.2,4c4.7-8.1-2-9.4-16.8-16.8c-15.5-7.4-18.2-4-19.5-2
			C1006.7,189.8,1004.6,194.5,1019.4,202.5"/>
		<path fill="#669900" d="M1036.3,177c8.1,7.4,16.8,16.1,22.2,10.8c5.4-6.1,0.7-7.4-11.4-20.2c-10.1-10.8-9.4-14.8-6.1-17.5
			c4-2.7,8.7-2.7,16.1,10.1c8.7,14.8,10.1,19.5,17.5,15.5c7.4-3.4,0-13.5-5.4-22.9c-17.5-32.3-37-20.2-41-17.5
			C1024.8,137.9,1006,150.7,1036.3,177"/>
		<path fill="#669900" d="M1096.1,167.6c9.4-1.3,6.7-7.4,3.4-22.9c-3.4-16.1-8.1-16.1-10.1-15.5c-2,0-6.7,2-4.7,18.2
			C1087.4,162.8,1086.7,168.9,1096.1,167.6"/>
		<path fill="#669900" d="M1097.5,306.2c-9.4-2-9.4,4-12.8,20.2c-3.4,16.1,0.7,17.5,2.7,18.2c2,0.7,7.4,0.7,11.4-14.8
			C1103.6,313.6,1106.2,308.2,1097.5,306.2"/>
		<path fill="#669900" d="M1071.9,299.4c-7.4-3.4-7.4,0.7-16.8,14.8c-8.1,11.4-12.1,11.4-15.5,8.7c-3.4-2.7-4.7-7.4,6.1-16.1
			c12.8-11.4,16.1-13.5,11.4-18.8s-12.8,2.7-21.5,9.4c-26.9,22.2-11.4,37-7.4,39.7s20.2,16.1,39-15.5
			C1072.6,312.2,1078.7,302.8,1071.9,299.4"/>
		<path fill="#669900" d="M1045,269.8c-3.4-8.1-8.7-4.7-24.2,2c-15.5,6.7-14.8,11.4-13.5,12.8c0.7,2,3.4,6.1,19.5,0
			C1042.3,279.3,1048.4,277.9,1045,269.8"/>
		<path fill="#669900" d="M1121,166.9c7.4,0,6.1-4,7.4-19.5c1.3-12.8,4-14.8,8.7-14.1c4,0.7,7.4,4,2.7,16.1
			c-5.4,14.8-7.4,18.2-0.7,20.2c6.7,2.7,9.4-8.1,12.8-16.8c12.1-29.6-8.1-35.7-12.1-36.3c-4.7-0.7-24.2-4.7-24.9,29.6
			C1115,156.1,1114.3,166.9,1121,166.9"/>
		<path fill="#669900" d="M1140.6,303.5c-6.7,2.7-4,5.4,0.7,20.2c4,12.1,2,15.5-2.7,16.1c-4,0.7-8.1-1.3-8.7-14.1
			c-0.7-15.5,0-19.5-7.4-18.8c-7.4,0-6.1,10.8-5.4,20.2c0.7,31.6,21.5,30.3,25.6,28.9c4.7-0.7,24.2-4,11.4-36.3
			C1150.7,310.9,1147.3,300.8,1140.6,303.5"/>
		<path fill="#C70000" d="M180.3,298.8c26.2,0,47.8-21.5,47.8-47.8h-21.5c0,14.8-12.1,26.9-26.9,26.9s-26.9-12.1-26.9-26.9h-20.9
			C132.6,277.2,154.1,298.8,180.3,298.8"/>
		<polygon fill="#C70000" points="271.2,362.7 353.9,362.7 347.9,333.1 286,333.1 273.2,271.9 313.6,271.9 318.3,292.7 298.1,292.7 
			302.8,312.9 343.9,312.9 331.1,250.3 249,250.3 		"/>
		<polygon fill="#C70000" points="17.5,312.9 56.5,312.9 60.6,292.7 40.4,292.7 45.1,271.9 85.5,271.9 72.7,333.1 12.8,333.1 
			6.7,362.7 88.8,362.7 111.7,250.3 31,250.3 		"/>
		<polygon fill="#C70000" points="213.3,298.1 213.3,319 192.4,319 192.4,337.8 167.6,337.8 167.6,319 147.4,319 147.4,298.1 
			133.9,298.1 153.4,362.7 207.3,362.7 226.1,298.1 		"/>
		<path fill="#CC0066" d="M518.1,70.7C536.3,49.1,508,26.2,508,26.2s3.4,8.1-10.8,22.9c-8.1,8.7-7.4,20.9-7.4,20.9
			c-12.8-6.1-14.8,8.7-14.8,18.8l9.4,10.1l6.7-3.4c11.4-14.8,17.5-31,18.2-53.8c3.4,18.8,1.3,33.6-4,46.4l19.5-10.8
			C522.8,72.7,518.1,70.7,518.1,70.7"/>
		<path fill="#CC0066" d="M442.1,218.7c-1.3-6.1-2-12.1-0.7-17.5l0,0c4-20.2,16.8-33,34.3-37.7c32.3-12.8,10.1-28.3,10.1-28.3
			c39.7-4,17.5-20.2,17.5-20.2c4-3.4,8.1-6.1,10.8-8.7c-5.4-0.7-11.4-1.3-17.5-2c-8.7,11.4-20.9,22.2-33.6,34.3
			c-27.6,24.2-56.5,74.7-14.8,109c-55.9-22.9-45.8-77.4,0-111.7c15.5-11.4,27.6-21.5,37-31.6c-8.7,0-17.5,1.3-25.6,2.7
			c-2,5.4-3.4,10.8-3.4,10.8c-20.9-18.2-33.6,27.6-33.6,27.6c-20.9-22.2-37.7,14.1-38.4,35c-0.7,29.6,13.5,61.2,56.5,78.1
			c0-2,0-4,0-6.7h35.7C459.6,244.3,446.1,233.5,442.1,218.7"/>
		<path fill="#CC0066" d="M477.8,212c0-4.7,0-8.1,1.3-10.8h-18.2c-1.3,3.4-2,8.1-1.3,14.1c2.7,20.2,20.2,31,36.3,37h14.1
			C496.6,244.3,479.1,230.8,477.8,212"/>
		<path fill="#CC0066" d="M401,261.8c-28.3,6.1-24.9,39.7-24.9,39.7s5.4-13.5,18.8-20.9c12.1-6.1,31.6-8.1,51.1,1.3
			c-1.3-2.7-2.7-6.1-3.4-8.7C434,265.1,419.9,257.7,401,261.8"/>
		<path fill="#CC0066" d="M476.4,327.7c-12.1,10.8-27.6,18.8-47.8,14.8c-15.5-3.4-24.9-13.5-20.2-28.9c4-13.5,18.2-13.5,22.2-10.8
			c-6.7,5.4-6.7,20.9,10.8,22.2c16.1,0,22.2-21.5,5.4-31.6c-20.2-11.4-55.9-3.4-59.2,32.3c19.5,22.2,46.4,36.3,78.1,41.7
			c41.7-13.5,60.6-68.6,67.3-83.4c-8.7,16.1-21.5,22.9-38.4,22.9C488.5,314.9,483.1,322.3,476.4,327.7"/>
		<path fill="#F58220" d="M787.3,320.3l-19.5-45.8l27.6,4.7l-24.9-41.7l25.6-43.1l-28.3,4.7l19.5-45.8l-41,28.9l-2.7-49.1
			l-24.2,45.1l-23.6-45.1l-2.7,49.1l-41-28.9l19.5,45.8l-28.3-4.7l25.6,43.1L644,279.3l27.6-4.7L652,320.3l41-28.9l2.7,49.8
			l23.6-44.4l24.2,44.4l2.7-49.8L787.3,320.3z M710.6,275.9c-21.5-6.1-34.3-28.9-28.3-50.5c4-15.5,16.8-25.6,31.6-28.3
			c-4,4.7-7.4,10.1-9.4,16.8c-6.1,21.5,6.1,44.4,28.3,50.5c6.7,2,12.8,2,19.5,0.7C741.5,275.2,726.1,279.9,710.6,275.9"/>
	</g>
</g>
</svg>
